<svg width="35" height="35" viewBox="0 0 35 35" fill="none" xmlns="http://www.w3.org/2000/svg">
<path d="M12.25 8.75H15.75L17.5 17.5L19.25 8.75H22.75L19.25 26.25H15.75L12.25 8.75ZM17.5 0C19.7981 0 22.0738 0.452651 24.197 1.33211C26.3202 2.21157 28.2493 3.50061 29.8744 5.12563C31.4994 6.75066 32.7884 8.67984 33.6679 10.803C34.5473 12.9262 35 15.2019 35 17.5C35 22.1413 33.1563 26.5925 29.8744 29.8744C26.5925 33.1563 22.1413 35 17.5 35C15.2019 35 12.9262 34.5473 10.803 33.6679C8.67984 32.7884 6.75066 31.4994 5.12563 29.8744C1.84374 26.5925 0 22.1413 0 17.5C0 12.8587 1.84374 8.40752 5.12563 5.12563C8.40752 1.84374 12.8587 0 17.5 0ZM17.5 3.5C13.787 3.5 10.226 4.975 7.60051 7.60051C4.975 10.226 3.5 13.787 3.5 17.5C3.5 21.213 4.975 24.774 7.60051 27.3995C10.226 30.025 13.787 31.5 17.5 31.5C21.213 31.5 24.774 30.025 27.3995 27.3995C30.025 24.774 31.5 21.213 31.5 17.5C31.5 13.787 30.025 10.226 27.3995 7.60051C24.774 4.975 21.213 3.5 17.5 3.5Z" fill="#5DEECD"/>
</svg>
