<svg width="59" height="153" viewBox="0 0 59 153" fill="none" xmlns="http://www.w3.org/2000/svg">
<path d="M31.8108 92.8492L39.3333 99.6139L46.8558 92.8492L49.1667 94.942L39.3333 103.785L29.5 94.942L31.8108 92.8492Z" fill="white"/>
<path d="M31.8108 141.484L39.3333 148.249L46.8558 141.484L49.1667 143.577L39.3333 152.42L29.5 143.577L31.8108 141.484Z" fill="white"/>
<path d="M31.8108 115.811L39.3333 122.576L46.8558 115.811L49.1667 117.904L39.3333 126.746L29.5 117.904L31.8108 115.811Z" fill="white"/>
<path d="M37.5633 36.8449H40.8411V54.5305L49.855 46.4246L52.1822 48.5174L39.2022 60.1898L26.2222 48.5174L28.5495 46.4246L37.5633 54.5305V36.8449Z" fill="white"/>
<path d="M31.8108 67.1756L39.3333 73.9404L46.8558 67.1756L49.1667 69.2684L39.3333 78.1112L29.5 69.2684L31.8108 67.1756Z" fill="white"/>
</svg>
