<svg width="106" height="33" viewBox="0 0 106 33" fill="none" xmlns="http://www.w3.org/2000/svg">
<path d="M36.72 14.5C36.52 13.94 36.3067 13.5133 36.08 13.22C35.8533 12.9267 35.52 12.6133 35.08 12.28L35.32 12H39.42L39.6 12.62L39.22 12.72C38.9267 12.7867 38.7133 12.8867 38.58 13.02C38.4467 13.14 38.38 13.3067 38.38 13.52C38.38 13.6533 38.4133 13.82 38.48 14.02C38.5467 14.22 38.5867 14.3467 38.6 14.4L41.52 23.48L44.08 15.6C44.32 14.88 44.44 14.3267 44.44 13.94C44.4133 13.2467 44.1333 12.84 43.6 12.72L43.18 12.62L43.4 12H46.84L47.08 12.28L46.8 12.62C46.3733 13.14 46.04 13.74 45.8 14.42L42.3 25H40.26L36.72 14.5ZM50.7478 25.26C49.3878 25.26 48.3078 24.8333 47.5078 23.98C46.7078 23.1133 46.3078 21.9533 46.3078 20.5C46.3078 19.0467 46.7078 17.9 47.5078 17.06C48.3078 16.2067 49.3878 15.78 50.7478 15.78C51.6411 15.78 52.4211 15.9733 53.0878 16.36C53.7545 16.7467 54.2678 17.2933 54.6278 18C54.9878 18.7067 55.1678 19.54 55.1678 20.5C55.1678 21.46 54.9811 22.3 54.6078 23.02C54.2478 23.74 53.7345 24.2933 53.0678 24.68C52.4011 25.0667 51.6278 25.26 50.7478 25.26ZM50.7078 24.28C51.4678 24.28 52.0811 23.94 52.5478 23.26C53.0278 22.5667 53.2678 21.66 53.2678 20.54C53.2678 19.9667 53.1878 19.3933 53.0278 18.82C52.8678 18.2333 52.6011 17.74 52.2278 17.34C51.8678 16.9267 51.3945 16.72 50.8078 16.72C50.0211 16.72 49.3878 17.0667 48.9078 17.76C48.4411 18.4533 48.2078 19.3733 48.2078 20.52C48.2078 21.6667 48.4278 22.58 48.8678 23.26C49.3211 23.94 49.9345 24.28 50.7078 24.28ZM61.1766 25.26C60.3366 25.26 59.5832 25.0533 58.9166 24.64C58.2499 24.2267 57.7232 23.66 57.3366 22.94C56.9632 22.22 56.7766 21.4133 56.7766 20.52C56.7766 19.56 56.9566 18.7267 57.3166 18.02C57.6766 17.3 58.1899 16.7467 58.8566 16.36C59.5232 15.9733 60.2966 15.78 61.1766 15.78C62.1099 15.78 62.8699 16.0067 63.4566 16.46C64.0566 16.9 64.3566 17.4733 64.3566 18.18C64.3566 18.7 64.1899 19.1267 63.8566 19.46C63.5232 19.78 63.0966 19.94 62.5766 19.94C62.4566 19.94 62.3699 19.9267 62.3166 19.9C62.2632 19.8733 62.2366 19.8267 62.2366 19.76C62.2366 19.72 62.2766 19.6333 62.3566 19.5C62.4499 19.3667 62.5299 19.2067 62.5966 19.02C62.6632 18.82 62.6966 18.5667 62.6966 18.26C62.6966 17.78 62.5366 17.4067 62.2166 17.14C61.9099 16.86 61.4966 16.72 60.9766 16.72C60.2832 16.72 59.7232 17.06 59.2966 17.74C58.8832 18.4067 58.6766 19.2933 58.6766 20.4C58.6766 21.52 58.9232 22.4067 59.4166 23.06C59.9232 23.7133 60.6032 24.04 61.4566 24.04C61.8966 24.04 62.3099 23.9667 62.6966 23.82C63.0832 23.6733 63.4699 23.44 63.8566 23.12C63.8832 23.0933 63.9366 23.08 64.0166 23.08C64.1232 23.08 64.2232 23.14 64.3166 23.26C64.4232 23.3667 64.4766 23.48 64.4766 23.6C64.4766 23.6933 64.4632 23.74 64.4366 23.74C64.0099 24.2333 63.5099 24.6133 62.9366 24.88C62.3766 25.1333 61.7899 25.26 61.1766 25.26ZM69.2558 25.26C68.6691 25.26 68.1224 25.0933 67.6158 24.76C67.1224 24.4133 66.7224 23.9133 66.4158 23.26C66.1224 22.5933 65.9758 21.7867 65.9758 20.84C65.9758 19.28 66.3958 18.0467 67.2358 17.14C68.0891 16.2333 69.2358 15.78 70.6758 15.78C71.1558 15.78 71.8091 15.8533 72.6358 16C73.2491 16.1067 73.8024 16.18 74.2958 16.22L74.5358 16.44L74.2758 16.78C74.1824 16.94 74.1158 17.0667 74.0758 17.16C74.0491 17.24 74.0358 17.3533 74.0358 17.5V23.4C74.0358 23.7733 74.2291 23.96 74.6158 23.96C74.9091 23.96 75.2091 23.8533 75.5158 23.64L75.8558 24.1C75.5358 24.46 75.1958 24.7467 74.8358 24.96C74.4758 25.16 74.1491 25.26 73.8558 25.26C73.3491 25.26 72.9824 25.1133 72.7558 24.82C72.5291 24.5133 72.4158 24.02 72.4158 23.34C71.9358 24.0467 71.4358 24.5467 70.9158 24.84C70.4091 25.12 69.8558 25.26 69.2558 25.26ZM69.9558 23.84C70.9691 23.84 71.7891 23.2933 72.4158 22.2V17.3C71.8958 16.9533 71.3091 16.78 70.6558 16.78C69.7891 16.78 69.1091 17.1067 68.6158 17.76C68.1358 18.4 67.8958 19.3133 67.8958 20.5C67.8958 21.6467 68.0891 22.4933 68.4758 23.04C68.8758 23.5733 69.3691 23.84 69.9558 23.84ZM79.2738 25.26C78.7671 25.26 78.4004 25.1133 78.1738 24.82C77.9604 24.5133 77.8538 24.02 77.8538 23.34V12.78C77.8538 12.6333 77.8271 12.5333 77.7738 12.48C77.7204 12.4133 77.6271 12.38 77.4938 12.38H76.7138L76.5338 11.92C76.8804 11.6 77.2804 11.34 77.7338 11.14C78.1871 10.9267 78.5938 10.82 78.9538 10.82C79.1271 10.82 79.2671 10.8733 79.3738 10.98C79.4804 11.0867 79.5338 11.2267 79.5338 11.4L79.4938 23.4C79.4938 23.6 79.5404 23.7533 79.6338 23.86C79.7271 23.9667 79.8604 24.02 80.0338 24.02C80.3671 24.02 80.6671 23.8933 80.9338 23.64L81.2938 24.1C80.9871 24.4467 80.6471 24.7267 80.2738 24.94C79.9004 25.1533 79.5671 25.26 79.2738 25.26ZM86.523 25.26C85.683 25.26 84.9496 25.0667 84.323 24.68C83.6963 24.2933 83.2096 23.7533 82.863 23.06C82.5163 22.3533 82.343 21.54 82.343 20.62C82.343 19.66 82.5363 18.8133 82.923 18.08C83.3096 17.3467 83.8563 16.78 84.563 16.38C85.283 15.98 86.1096 15.78 87.043 15.78C88.0296 15.78 88.7896 16.04 89.323 16.56C89.8696 17.08 90.143 17.7067 90.143 18.44C90.143 18.9467 90.003 19.4333 89.723 19.9C89.4563 20.3667 89.0563 20.7467 88.523 21.04C88.003 21.3333 87.3896 21.48 86.683 21.48C86.283 21.48 85.8496 21.4133 85.383 21.28C84.9163 21.1333 84.683 20.92 84.683 20.64C84.683 20.5333 84.7096 20.44 84.763 20.36C84.8163 20.28 84.8763 20.24 84.943 20.24C84.983 20.24 85.103 20.28 85.303 20.36C85.5163 20.4267 85.7896 20.46 86.123 20.46C86.8563 20.46 87.423 20.26 87.823 19.86C88.223 19.46 88.423 18.98 88.423 18.42C88.423 17.94 88.263 17.5267 87.943 17.18C87.6363 16.8333 87.223 16.66 86.703 16.66C85.9163 16.66 85.303 17.0067 84.863 17.7C84.4363 18.38 84.223 19.3533 84.223 20.62C84.223 21.7 84.4496 22.5467 84.903 23.16C85.3696 23.76 86.0363 24.06 86.903 24.06C87.9696 24.06 88.8496 23.7133 89.543 23.02C89.583 22.98 89.6363 22.96 89.703 22.96C89.8096 22.96 89.9163 23.0133 90.023 23.12C90.143 23.2267 90.203 23.34 90.203 23.46C90.203 23.5 90.1896 23.54 90.163 23.58C90.1363 23.6067 90.123 23.6267 90.123 23.64C89.6696 24.1733 89.1296 24.58 88.503 24.86C87.8896 25.1267 87.2296 25.26 86.523 25.26ZM95.1933 25.26C94.6066 25.26 94.0599 25.0933 93.5533 24.76C93.0599 24.4133 92.6599 23.9133 92.3533 23.26C92.0599 22.5933 91.9133 21.7867 91.9133 20.84C91.9133 19.28 92.3333 18.0467 93.1733 17.14C94.0266 16.2333 95.1733 15.78 96.6133 15.78C97.3199 15.78 97.8933 15.8533 98.3333 16V12.78C98.3333 12.6333 98.3066 12.5333 98.2533 12.48C98.1999 12.4133 98.1133 12.38 97.9933 12.38H97.1933L97.0333 11.92C97.3666 11.6 97.7599 11.34 98.2133 11.14C98.6666 10.9267 99.0599 10.82 99.3933 10.82C99.5666 10.82 99.7066 10.8733 99.8133 10.98C99.9199 11.0867 99.9733 11.2267 99.9733 11.4V23.4C99.9733 23.7733 100.167 23.96 100.553 23.96C100.847 23.96 101.147 23.8533 101.453 23.64L101.793 24.1C101.473 24.46 101.133 24.7467 100.773 24.96C100.413 25.16 100.087 25.26 99.7933 25.26C99.2866 25.26 98.9199 25.1133 98.6933 24.82C98.4666 24.5133 98.3533 24.02 98.3533 23.34C97.8733 24.0467 97.3733 24.5467 96.8533 24.84C96.3466 25.12 95.7933 25.26 95.1933 25.26ZM95.8933 23.84C96.9066 23.84 97.7266 23.2933 98.3533 22.2V17.3C97.8333 16.9533 97.2466 16.78 96.5933 16.78C95.7266 16.78 95.0466 17.1067 94.5533 17.76C94.0733 18.4 93.8333 19.3133 93.8333 20.5C93.8333 21.6467 94.0266 22.4933 94.4133 23.04C94.8133 23.5733 95.3066 23.84 95.8933 23.84Z" fill="white"/>
<path fill-rule="evenodd" clip-rule="evenodd" d="M5.30197 14.8617C4.46692 15.1068 3.97542 15.9372 4.20417 16.7166L5.44672 20.9497C5.67547 21.7291 6.53784 22.1621 7.37288 21.917L10.3968 21.0294L8.32592 13.9741L5.30197 14.8617ZM10.811 22.4404L9.29904 22.8842L10.9558 28.5285C11.0701 28.9181 11.5013 29.1347 11.9188 29.0121C12.3364 28.8895 12.5821 28.4743 12.4677 28.0847L10.811 22.4404ZM7.78706 23.328C6.11698 23.8183 4.39223 22.9521 3.93474 21.3935L2.6922 17.1604C2.23471 15.6018 3.2177 13.9409 4.88779 13.4506L8.66773 12.3411C9.08526 12.2186 9.51643 12.4351 9.63081 12.8248L13.9797 27.6409C14.3229 28.8099 13.5856 30.0555 12.333 30.4232C11.0804 30.7908 9.78692 30.1413 9.44379 28.9723L7.78706 23.328Z" fill="#5DEECD"/>
<path fill-rule="evenodd" clip-rule="evenodd" d="M18.533 2.64319C18.8113 2.6961 19.0312 2.88904 19.1068 3.14654L21.1777 10.2018C22.8477 9.71162 24.5725 10.5778 25.03 12.1363L25.2371 12.8419C25.6946 14.4004 24.7116 16.0614 23.0415 16.5516L25.1124 23.6069C25.188 23.8644 25.1073 24.1456 24.9018 24.3405C24.6963 24.5353 24.3986 24.6131 24.1253 24.5432L14.3598 22.0454C14.1037 21.9799 13.9057 21.7941 13.8349 21.5529L10.7286 10.97C10.6578 10.7288 10.7239 10.4655 10.9039 10.272L17.7702 2.89236C17.9624 2.68579 18.2548 2.59027 18.533 2.64319V2.64319ZM22.6273 15.1405C23.4624 14.8954 23.9539 14.065 23.7251 13.2857L23.518 12.5801C23.2893 11.8008 22.4269 11.3678 21.5919 11.6129L22.6273 15.1405ZM12.3542 10.9134L15.2332 20.7218L23.2232 22.7654L17.9721 4.87559L12.3542 10.9134Z" fill="white"/>
<path fill-rule="evenodd" clip-rule="evenodd" d="M28.4959 7.62863C28.8226 7.88485 28.8573 8.35048 28.5734 8.66855L26.7196 10.7453C26.4357 11.0634 25.9406 11.1136 25.6139 10.8574C25.2871 10.6012 25.2524 10.1356 25.5363 9.81742L27.3901 7.74065C27.674 7.42259 28.1691 7.37243 28.4959 7.62863ZM26.2003 13.3254C26.086 12.9358 26.3317 12.5205 26.7492 12.398L29.7732 11.5104C30.1907 11.3878 30.6219 11.6043 30.7363 11.994C30.8506 12.3837 30.6049 12.7989 30.1874 12.9214L27.1634 13.809C26.7459 13.9316 26.3147 13.7151 26.2003 13.3254ZM27.0408 15.7189C27.1772 15.3267 27.6209 15.1013 28.0317 15.2155L30.7139 15.9608C31.1247 16.075 31.3472 16.4855 31.2108 16.8777C31.0743 17.2699 30.6306 17.4953 30.2198 17.3811L27.5376 16.6357C27.1268 16.5216 26.9044 16.1111 27.0408 15.7189Z" fill="#5DEECD"/>
</svg>
